<svg width="966" height="148" viewBox="0 0 966 148" fill="none" xmlns="http://www.w3.org/2000/svg">
<path fill-rule="evenodd" clip-rule="evenodd" d="M750.046 90.1999C753.286 82.2799 754.906 73.8199 754.906 64.8199C754.906 56.0599 753.286 47.7799 750.046 39.9799C746.926 32.1799 742.546 25.3399 736.906 19.4599C731.266 13.4599 724.726 8.77988 717.286 5.41988C709.846 2.05988 701.866 0.379883 693.346 0.379883C685.066 0.379883 677.206 2.05988 669.766 5.41988C662.326 8.77988 655.726 13.4599 649.966 19.4599C644.206 25.3399 639.706 32.1799 636.466 39.9799C633.226 47.6599 631.606 55.9399 631.606 64.8199C631.606 73.6999 633.166 82.0399 636.286 89.8399C639.526 97.6399 643.966 104.54 649.606 110.54C655.246 116.42 661.786 121.1 669.226 124.58C676.666 127.94 684.706 129.62 693.346 129.62C701.866 129.62 709.846 127.94 717.286 124.58C724.726 121.22 731.266 116.6 736.906 110.72C742.546 104.84 746.926 97.9999 750.046 90.1999ZM729.346 41.9599C733.186 48.7999 735.106 56.4199 735.106 64.8199C735.106 73.0999 733.246 80.7799 729.526 87.8599C725.806 94.8199 720.766 100.4 714.406 104.6C708.166 108.8 701.146 110.9 693.346 110.9C685.666 110.9 678.646 108.8 672.286 104.6C665.926 100.4 660.826 94.8199 656.986 87.8599C653.266 80.8999 651.406 73.2199 651.406 64.8199C651.406 56.5399 653.266 48.9199 656.986 41.9599C660.826 34.9999 665.866 29.4199 672.106 25.2199C678.466 21.0199 685.546 18.9199 693.346 18.9199C701.026 18.9199 707.986 21.0199 714.226 25.2199C720.586 29.4199 725.626 34.9999 729.346 41.9599ZM924.591 129.8C919.191 129.8 913.791 129.02 908.391 127.46C903.111 125.78 898.131 123.56 893.451 120.8C888.771 118.04 884.751 114.92 881.391 111.44L895.791 97.7599C899.631 101.48 904.131 104.48 909.291 106.76C914.571 108.92 919.551 110 924.231 110C930.471 110 935.751 108.2 940.071 104.6C944.511 101 946.731 96.5599 946.731 91.2799C946.851 86.8399 945.291 83.1799 942.051 80.2999C938.811 77.2999 934.371 75.0199 928.731 73.4599C918.771 70.8199 910.191 67.8799 902.991 64.6399C895.911 61.3999 890.571 57.2599 886.971 52.2199C883.491 47.0599 882.171 40.2799 883.011 31.8799C884.211 21.6799 888.531 13.9999 895.971 8.83992C903.531 3.55992 912.831 0.919922 923.871 0.919922C929.991 0.919922 936.411 1.81992 943.131 3.61992C949.971 5.41992 956.631 8.35992 963.111 12.4399L949.611 26.8399C945.891 25.0399 941.931 23.4799 937.731 22.1599C933.531 20.8399 929.271 20.1799 924.951 20.1799C921.231 20.0599 917.631 20.4799 914.151 21.4399C910.791 22.2799 908.031 23.7799 905.871 25.9399C903.711 27.9799 902.571 30.7399 902.451 34.2199C902.331 38.0599 903.291 41.0599 905.331 43.2199C907.371 45.3799 910.191 47.1799 913.791 48.6199C917.511 49.9399 921.771 51.3199 926.571 52.7599C934.971 55.0399 942.111 57.6199 947.991 60.4999C953.871 63.3799 958.311 67.2199 961.311 72.0199C964.431 76.8199 965.991 83.2399 965.991 91.2799C965.991 98.4799 964.131 105.02 960.411 110.9C956.691 116.66 951.651 121.28 945.291 124.76C939.051 128.12 932.151 129.8 924.591 129.8ZM865.183 128H839.983L790.123 26.12V127.82H771.043V2H797.863L845.923 102.08V2H865.183V128ZM615.396 128H596.316V2H615.396V128ZM543.27 19.64H580.17V2H487.29V19.64H524.19V128H543.27V19.64ZM472.971 128H386.391V111.8L448.851 20H387.291V2H472.071V18.02L409.251 110.36H472.971V128ZM285.493 128H372.073V110.36H308.353L371.173 18.02V2H286.393V20H347.953L285.493 111.8V128ZM269.283 128H250.203V2H269.283V128ZM213.077 116.3V128H232.157V82.28V80.3V2H213.077V83C213.077 87.92 211.817 92.36 209.297 96.32C206.897 100.28 203.597 103.4 199.397 105.68C195.197 107.96 190.397 109.1 184.997 109.1C179.837 109.1 175.097 107.96 170.777 105.68C166.577 103.4 163.217 100.28 160.697 96.32C158.297 92.36 157.097 87.92 157.097 83L156.917 2H137.837V83C137.837 91.52 139.877 99.26 143.957 106.22C148.157 113.06 153.797 118.58 160.877 122.78C167.957 126.86 175.997 128.9 184.997 128.9C190.517 128.9 195.617 127.76 200.297 125.48C205.097 123.08 209.357 120.02 213.077 116.3ZM61.94 128.9C53.3 128.9 45.26 127.28 37.82 124.04C30.38 120.68 23.84 116.06 18.2 110.18C12.56 104.3 8.11995 97.52 4.87995 89.84C1.75995 82.16 0.199951 74 0.199951 65.36C0.199951 56.48 1.75995 48.2 4.87995 40.52C8.11995 32.72 12.56 25.88 18.2 20C23.84 14 30.38 9.31999 37.82 5.95999C45.38 2.47999 53.42 0.73999 61.94 0.73999C70.58 0.73999 78.62 2.41999 86.06 5.77999C93.5 9.13999 99.98 13.82 105.5 19.82C111.14 25.7 115.52 32.54 118.64 40.34C121.88 48.14 123.5 56.48 123.5 65.36C123.5 72.7413 118.591 91.3634 115.328 100.969L137.898 113.649L96.0302 147.266L88.6121 122.777C80.2447 126.859 71.354 128.9 61.94 128.9ZM83.0638 104.461C81.1612 104.442 80.0077 104.662 80.3 105.32C74.54 108.44 68.42 110 61.94 110C54.02 110 46.94 107.9 40.7 103.7C34.46 99.5 29.48 94.04 25.76 87.32C22.04 80.48 20.18 73.16 20.18 65.36C20.18 57.44 21.98 50 25.58 43.04C29.3 36.08 34.28 30.5 40.52 26.3C46.88 21.98 54.02 19.82 61.94 19.82C69.74 19.82 76.76 21.92 83 26.12C89.24 30.32 94.22 35.9 97.94 42.86C101.66 49.7 103.52 57.2 103.52 65.36C103.52 70.04 102.8 74.54 101.36 78.86C101.072 79.801 100.615 81.4224 100.051 83.4191L100.051 83.4195C99.4174 85.6644 98.6499 88.3837 97.8397 91.1438L75.1722 78.409L83.0638 104.461Z" fill="white"/>
</svg>
